PathFileType	4	(X/Y/Z)	./resultDataOpenSim/trcMotMarkerGrf/sub06/qtm-14-01.trc
DataRate	CameraRate	NumFrames	NumMarkers	Units	OrigDataRate	OrigDataStartFrame	OrigNumFrames
250.000000	250.000000	12	24	m	250.000000	1	547
Frame#	Time	L.Toe.Tip			R.Toe.Tip			L.Ankle.Lat			R.Ankle.Lat			L.Ankle.Med			R.Ankle.Med			L.Heel			R.Heel			L.Knee.Lat			R.Knee.Lat			L.Knee.Med			R.Knee.Med			L.Thigh.Upper			R.Thigh.Upper			L.ASIS			R.ASIS			V.Sacral			L.Acromium			R.Acromium			C7			L.Elbow			R.Elbow			L.Wrist.Lat			R.Wrist.Lat
		X1	Y1	Z1	X2	Y2	Z2	X3	Y3	Z3	X4	Y4	Z4	X5	Y5	Z5	X6	Y6	Z6	X7	Y7	Z7	X8	Y8	Z8	X9	Y9	Z9	X10	Y10	Z10	X11	Y11	Z11	X12	Y12	Z12	X13	Y13	Z13	X14	Y14	Z14	X15	Y15	Z15	X16	Y16	Z16	X17	Y17	Z17	X18	Y18	Z18	X19	Y19	Z19	X20	Y20	Z20	X21	Y21	Z21	X22	Y22	Z22	X23	Y23	Z23	X24	Y24	Z24

1	0	-1.5578241	0.031933802	-0.093610259	-0.90232626	0.12778256	0.11850502	-1.6781858	0.072661595	-0.11539756	-1.0323318	0.087431287	0.12393282	-1.6710981	0.085820854	-0.030689631	-1.0165574	0.11962647	0.041475052	NaN	NaN	NaN	-1.0605511	0.042544573	0.050982396	-1.5104898	0.40440279	-0.12922991	-1.1703748	0.44993173	0.13262713	-1.5332925	0.4155734	-0.0080665034	-1.1749546	0.43058148	0.00060860227	-1.4009919	0.77451408	-0.18940132	-1.3660404	0.7673968	0.16013385	-1.3128867	0.81285523	-0.15125611	-1.2846739	0.81939667	0.094920727	-1.4701346	0.89920454	0.0045285145	-1.3104962	1.3024577	-0.20191072	-1.3368783	1.2894895	0.1605353	-1.4002902	1.3359616	-0.026851302	-1.2430947	0.98709401	-0.27512771	-1.4863838	1.0085649	0.2088755	-1.0089717	0.91558215	-0.22664649	-1.428234	0.78217957	0.26195389
2	0.004	-1.5577456	0.03189644	-0.093669322	-0.89260693	0.12948272	0.11749557	-1.6775693	0.073574929	-0.11551502	-1.0221378	0.087802789	0.12348458	-1.6704751	0.086748753	-0.030831742	-1.0069113	0.12006739	0.040971489	NaN	NaN	NaN	-1.0502095	0.042506894	0.050744139	-1.50645	0.40368932	-0.12922638	-1.1636424	0.44886974	0.13237835	-1.528225	0.41476761	-0.0080586323	-1.1681652	0.42952478	0.00014613942	-1.3956686	0.77320705	-0.18917994	-1.3589122	0.76587792	0.16033011	-1.307194	0.81146785	-0.15152945	-1.2780886	0.8180254	0.094710955	-1.4640716	0.89788489	0.0051062219	-1.3041738	1.3011036	-0.20151383	-1.3312359	1.2880998	0.16094799	-1.3943053	1.3345976	-0.026578803	-1.2352917	0.98606639	-0.27443176	-1.4813896	1.0077013	0.20847308	-1.0006215	0.91594347	-0.22551737	-1.425838	0.78104247	0.2624365
3	0.008	-1.5576729	0.031860418	-0.093728357	-0.88319802	0.13084101	0.11645486	-1.6767686	0.074543382	-0.11567927	-1.0122792	0.088046108	0.12297928	-1.6702521	0.087649896	-0.03085465	-0.9976166	0.12038382	0.040398961	NaN	NaN	NaN	-1.0402738	0.042381654	0.050450956	-1.5023326	0.40300977	-0.12919894	-1.1568864	0.44784476	0.13212934	-1.5232506	0.41399637	-0.0080136206	-1.1613151	0.42857986	-0.00029586991	-1.390303	0.77191957	-0.18891098	-1.3518	0.76443466	0.16051183	-1.3014492	0.81013794	-0.15179006	-1.2714383	0.81665461	0.094489456	-1.4579278	0.89663203	0.0057101878	-1.297823	1.2997855	-0.20111883	-1.3255036	1.2867334	0.16136774	-1.3883018	1.3332898	-0.026348599	-1.2275383	0.98505058	-0.27373326	-1.4765244	1.0070597	0.20820389	-0.99244814	0.91623404	-0.22448426	-1.4236181	0.77991398	0.2628933
4	0.012	-1.5576127	0.031827066	-0.093786039	-0.8742797	0.13167629	0.11532445	-1.6757354	0.075606483	-0.11590271	-1.0029637	0.088073837	0.12235653	-1.6710091	0.08841992	-0.030588523	-0.98886072	0.1205003	0.039707016	NaN	NaN	NaN	-1.0309966	0.042126455	0.050057632	-1.4980755	0.40236601	-0.12915153	-1.1500422	0.44688491	0.13187339	-1.5183647	0.41326469	-0.0079212549	-1.1543735	0.42780394	-0.00069685131	-1.3848581	0.77066918	-0.18857922	-1.3446932	0.76310825	0.16066957	-1.2956233	0.80889312	-0.15203613	-1.2646876	0.81531603	0.094244177	-1.4516	0.89552952	0.0063829834	-1.2914204	1.2985217	-0.20071603	-1.3196204	1.2854093	0.16180152	-1.3822425	1.3320592	-0.026133836	-1.2198556	0.98405687	-0.273013	-1.4716547	1.006587	0.20802189	-0.98447429	0.91643164	-0.22355109	-1.4215504	0.77880856	0.26331901
5	0.016	-1.557568	0.031796257	-0.093841558	-0.86591363	0.13196384	0.11406571	-1.6746879	0.076774492	-0.11613087	-0.99427952	0.087850994	0.12158555	-1.6730055	0.08901647	-0.029961495	-0.98068611	0.12038408	0.038875641	NaN	NaN	NaN	-1.0224708	0.041741042	0.049528921	-1.4936378	0.40174435	-0.12910099	-1.143033	0.44601807	0.1316073	-1.5134784	0.41254889	-0.0078044258	-1.1473577	0.42720253	-0.0010388869	-1.3793209	0.76947237	-0.18820541	-1.3376163	0.761896	0.16079067	-1.2897241	0.8077365	-0.15226539	-1.257844	0.81404907	0.093968327	-1.4450138	0.89465811	0.007151775	-1.2849682	1.2973203	-0.20029456	-1.3135872	1.2841403	0.16225355	-1.3761066	1.3309036	-0.02587609	-1.2122599	0.98309501	-0.27226034	-1.4665145	1.0060515	0.20777679	-0.97664384	0.91654853	-0.22267304	-1.4193309	0.77777277	0.26373471
6	0.02	-1.5575342	0.03176577	-0.093896017	-0.85809896	0.13174283	0.11267177	-1.6739583	0.078038247	-0.11628181	-0.98623935	0.087371342	0.12067536	-1.6753093	0.089666068	-0.029267801	-0.97307409	0.12001896	0.037914474	NaN	NaN	NaN	-1.014694	0.041225928	0.048853988	-1.4889837	0.40114669	-0.12905315	-1.1357882	0.44527823	0.13134042	-1.5084717	0.41184552	-0.0077041662	-1.1402922	0.42676495	-0.0013185373	-1.3736887	0.76834375	-0.18781299	-1.3306359	0.76077368	0.16085686	-1.2837693	0.8066616	-0.15247653	-1.2509114	0.81288194	0.093664758	-1.4381927	0.89401582	0.007966327	-1.2784756	1.2961871	-0.19985271	-1.3074341	1.28293	0.162724	-1.3698872	1.3298223	-0.025528136	-1.2047567	0.9821686	-0.27147229	-1.4610296	1.0053672	0.20743559	-0.96891536	0.91659703	-0.22181997	-1.4166625	0.7768566	0.26417281
7	0.024	-1.5574964	0.031734266	-0.093952368	-0.85082875	0.13106813	0.11112555	-1.6735198	0.079390665	-0.11636683	-0.97883691	0.086637409	0.11964655	-1.6763156	0.090718879	-0.029005465	-0.96600936	0.11939953	0.03684781	NaN	NaN	NaN	-1.0076443	0.040569392	0.048045428	-1.4841006	0.40058185	-0.12900197	-1.1283104	0.44467983	0.13107316	-1.5032677	0.41118691	-0.0076491648	-1.1331881	0.42648064	-0.001551903	-1.3679615	0.76728824	-0.18740255	-1.3237525	0.7597601	0.16087579	-1.2777763	0.80565865	-0.1526817	-1.2438708	0.81183747	0.093346375	-1.4312679	0.89348307	0.008713845	-1.2719454	1.2951243	-0.19938967	-1.3011846	1.2817766	0.16321087	-1.3635897	1.328814	-0.025082725	-1.1973442	0.98127791	-0.2706393	-1.4553612	1.0046592	0.20711053	-0.96128068	0.91658259	-0.22098101	-1.4134863	0.77607788	0.26465551
8	0.028	-1.5574269	0.031702595	-0.094017038	-0.84410689	0.12998734	0.10940898	-1.6729253	0.080837249	-0.11650802	-0.97206726	0.085664145	0.11851459	-1.6753943	0.092284799	-0.029357172	-0.95948906	0.11852823	0.035691297	NaN	NaN	NaN	-1.0013055	0.039759621	0.047123406	-1.4790173	0.40003583	-0.12894598	-1.1207085	0.44419384	0.13077602	-1.4978945	0.41058241	-0.0076261809	-1.1260501	0.42633261	-0.0017606119	-1.3621387	0.76629379	-0.18696552	-1.3168382	0.75892475	0.1609007	-1.2717473	0.80471782	-0.15289159	-1.2367098	0.81093055	0.093031092	-1.4243616	0.89292038	0.0093272216	-1.2653727	1.2941314	-0.19889649	-1.2948473	1.2806781	0.16371413	-1.357235	1.3278611	-0.024601656	-1.1900225	0.98042601	-0.26975299	-1.4496606	1.0040519	0.20689601	-0.95374658	0.91650968	-0.22015059	-1.409841	0.77543117	0.26519475
9	0.032	-1.5572944	0.031671089	-0.094100124	-0.83794072	0.1285277	0.1075309	-1.6718805	0.082386359	-0.11679346	-0.96590152	0.084491261	0.11728967	-1.673181	0.094193529	-0.030107969	-0.95351527	0.11740548	0.034447531	NaN	NaN	NaN	-0.99566212	0.038781867	0.046129421	-1.4737826	0.3994806	-0.12889755	-1.1131135	0.44377512	0.1304116	-1.4924447	0.40999404	-0.0075922482	-1.1188892	0.42629544	-0.0019484925	-1.3562138	0.76535015	-0.18650463	-1.3097779	0.75829732	0.16098964	-1.2656476	0.80383729	-0.15308443	-1.2294557	0.81016461	0.092738986	-1.4174897	0.89227768	0.0098277367	-1.2587546	1.2932107	-0.19836573	-1.2884312	1.27964	0.16423803	-1.3508513	1.326931	-0.024191306	-1.1827931	0.97961629	-0.26881271	-1.4439472	1.0035599	0.20679344	-0.94632193	0.91638092	-0.21932485	-1.405766	0.77489754	0.26579313
10	0.036	-1.5570997	0.031638935	-0.094203809	-0.83233285	0.12670789	0.10550633	-1.6705101	0.084038553	-0.11720308	-0.96026145	0.083188367	0.11598008	-1.6705272	0.096244473	-0.030992498	-0.94809452	0.1160278	0.033122016	NaN	NaN	NaN	-0.99069292	0.037616562	0.045123585	-1.4684232	0.39890758	-0.12887044	-1.105569	0.44340517	0.12997488	-1.4869394	0.40938986	-0.007532148	-1.1117233	0.42634329	-0.0020952653	-1.3501705	0.76446248	-0.18602411	-1.3023753	0.75789044	0.16121512	-1.2594181	0.80302487	-0.15320451	-1.2221526	0.80953373	0.092493571	-1.4105859	0.8915852	0.01025448	-1.2520978	1.2923689	-0.19780113	-1.2819562	1.2786769	0.16479126	-1.344456	1.3259987	-0.023912889	-1.175655	0.97884925	-0.2678251	-1.4381758	1.0031481	0.20676569	-0.93901213	0.91619536	-0.21850409	-1.4014108	0.77444462	0.26642156
11	0.04	-1.5569193	0.031607755	-0.094299709	-0.82727741	0.12454583	0.10334882	-1.6690418	0.085786337	-0.11768373	-0.9550558	0.081826137	0.11461156	-1.667897	0.098342845	-0.031880262	-0.94323043	0.11440221	0.031733925	NaN	NaN	NaN	-0.98636795	0.03625994	0.044130964	-1.4629345	0.39833066	-0.12886702	-1.0980273	0.4430931	0.12950299	-1.4812958	0.40877176	-0.0074802073	-1.1045747	0.42645467	-0.0021838346	-1.3439912	0.76362845	-0.18551438	-1.2939893	0.75785522	0.16174026	-1.2530152	0.80228376	-0.15320306	-1.2148252	0.80902923	0.092314362	-1.4035624	0.8908836	0.010600166	-1.2454148	1.2916117	-0.19720916	-1.275444	1.2778037	0.16538129	-1.3380383	1.3250813	-0.023699438	-1.168607	0.97812416	-0.26680353	-1.4323089	1.0027918	0.20678768	-0.93181879	0.91595184	-0.21769172	-1.3970205	0.77404004	0.26702724
12	0.044	-1.5568653	0.031582663	-0.094339141	-0.82275895	0.12205491	0.10109178	-1.6675607	0.087620448	-0.11821267	-0.95028395	0.080398603	0.11322824	-1.665441	0.10046757	-0.032732991	-0.93891601	0.11255595	0.030310274	NaN	NaN	NaN	-0.98265004	0.034738933	0.043117361	-1.4573039	0.39776313	-0.12888086	-1.0904306	0.44284634	0.12903969	-1.4754539	0.40814331	-0.0074704349	-1.0974734	0.42660875	-0.002233311	-1.33767	0.76282443	-0.18496895	-1.2840612	0.75835534	0.16268785	-1.2464361	0.80159961	-0.15308472	-1.2074751	0.80864493	0.09220707	-1.3963572	0.89018788	0.010825293	-1.2387125	1.29094	-0.19658766	-1.2689055	1.2770194	0.16600908	-1.3315669	1.3242341	-0.023400906	-1.1616501	0.97744034	-0.26575928	-1.426332	1.0024803	0.20685065	-0.92474089	0.91565115	-0.21688993	-1.3927192	0.77367051	0.26758993
